<?xml version="1.0" encoding="UTF-8" standalone="no" ?>
<!DOCTYPE svg PUBLIC "-//W3C//DTD SVG 1.1//EN" "http://www.w3.org/Graphics/SVG/1.1/DTD/svg11.dtd">
<svg xmlns="http://www.w3.org/2000/svg" xmlns:xlink="http://www.w3.org/1999/xlink" version="1.1" width="1080" height="1080" viewBox="0 0 1080 1080" xml:space="preserve">
<desc>Created with Fabric.js 5.2.4</desc>
<defs>
</defs>
<rect x="0" y="0" width="100%" height="100%" fill="transparent"></rect>
<g transform="matrix(1 0 0 1 540 540)" id="c1bee51e-01ad-4d13-ac41-6cd33ce9405e"  >
<rect style="stroke: none; stroke-width: 1; stroke-dasharray: none; stroke-linecap: butt; stroke-dashoffset: 0; stroke-linejoin: miter; stroke-miterlimit: 4; fill: rgb(255,255,255); fill-rule: nonzero; opacity: 1; visibility: hidden;" vector-effect="non-scaling-stroke"  x="-540" y="-540" rx="0" ry="0" width="1080" height="1080" />
</g>
<g transform="matrix(1 0 0 1 540 540)" id="b0a07e8d-5dfd-4d80-8708-c2393bcd6063"  >
</g>
<g transform="matrix(1 0 0 1 540 540)" id="83a71776-c5d4-4f8a-b0b7-2fa91d4b10a7"  >
<path style="stroke: rgb(0,0,0); stroke-width: 0; stroke-dasharray: none; stroke-linecap: butt; stroke-dashoffset: 0; stroke-linejoin: miter; stroke-miterlimit: 4; fill: rgb(255,255,255); fill-rule: nonzero; opacity: 1;" vector-effect="non-scaling-stroke"  transform=" translate(-223.95, -256.05)" d="M 438.6 105.4 C 451.1 117.9 451.1 138.2 438.6 150.7 L 182.60000000000002 406.7 C 170.10000000000002 419.2 149.8 419.2 137.3 406.7 L 9.300000000000011 278.7 C -3.1999999999999886 266.2 -3.1999999999999886 245.89999999999998 9.300000000000011 233.39999999999998 C 21.80000000000001 220.89999999999998 42.10000000000001 220.89999999999998 54.60000000000001 233.39999999999998 L 160 338.7 L 393.4 105.4 C 405.9 92.9 426.2 92.9 438.7 105.4 z" stroke-linecap="round" />
</g>
</svg>